<svg width="20" height="20" viewBox="0 0 20 20" fill="none" xmlns="http://www.w3.org/2000/svg">
<g clip-path="url(#clip0_602_4881)">
<mask id="mask0_602_4881" style="mask-type:luminance" maskUnits="userSpaceOnUse" x="0" y="0" width="20" height="20">
<path d="M20 0H0V20H20V0Z" fill="white"/>
</mask>
<g mask="url(#mask0_602_4881)">
<path d="M19.5507 0.450898C19.2606 0.160781 18.8747 0.000976562 18.4644 0.000976562C18.054 0.000976562 17.6683 0.160781 17.378 0.450898L16.982 0.846836C16.3249 1.50395 15.9027 1.59457 15.5443 1.59457C15.5442 1.59457 15.5444 1.59457 15.5443 1.59457C15.4135 1.59457 15.2827 1.58152 15.1444 1.56773C14.9959 1.55293 14.8426 1.53766 14.679 1.53766C14.1645 1.53766 13.717 1.70527 13.2659 2.07305C12.9879 1.87004 12.6531 1.76023 12.3007 1.76023C11.862 1.76023 11.4503 1.9302 11.1417 2.23883C10.8335 2.54711 10.6635 2.95812 10.6631 3.39629C10.4451 3.33859 10.2181 3.3082 9.98617 3.3082C9.28629 3.3082 8.62984 3.57918 8.13781 4.07117L0.764297 11.4447C-0.254766 12.4638 -0.254766 14.122 0.764297 15.1411L4.86062 19.2374C5.35258 19.7294 6.00894 20.0003 6.70879 20.0003C7.40867 20.0003 8.06512 19.7294 8.55703 19.2374L15.9305 11.8639C16.4225 11.3719 16.6935 10.7155 16.6935 10.0156C16.6935 9.78367 16.6631 9.5566 16.6054 9.33859C17.0436 9.33812 17.4545 9.16824 17.7627 8.86004C18.0714 8.55144 18.2414 8.1398 18.2414 7.70098C18.2415 7.34836 18.1314 7.0134 17.9282 6.73519C18.5447 5.97461 18.4842 5.36125 18.4339 4.85746C18.3796 4.3125 18.3326 3.84187 19.1548 3.01973L19.5508 2.62379C20.1497 2.02469 20.1497 1.05 19.5507 0.450898ZM15.6007 10.9448L13.9619 9.30594C13.7991 9.14324 13.5354 9.14324 13.3726 9.3059C13.2098 9.46859 13.2098 9.73246 13.3726 9.89515L15.0466 11.5693L13.7925 12.8233L12.1185 11.1492C11.9557 10.9865 11.692 10.9865 11.5292 11.1492C11.3664 11.3119 11.3664 11.5758 11.5292 11.7385L13.2033 13.4126L11.9491 14.6667L10.2752 12.9926C10.1124 12.8299 9.84867 12.8299 9.6859 12.9926C9.52312 13.1553 9.52312 13.4192 9.6859 13.5819L11.36 15.2559L10.1059 16.51L8.43172 14.8359C8.26895 14.6732 8.0052 14.6732 7.84242 14.8359C7.67977 14.9986 7.67977 15.2625 7.84242 15.4252L9.51656 17.0993L8.2625 18.3534L6.36055 16.4513C6.19777 16.2886 5.93402 16.2886 5.77125 16.4513C5.60848 16.614 5.60848 16.8778 5.77125 17.0405L7.63816 18.9075C7.36188 19.0764 7.04285 19.1669 6.70875 19.1669C6.23148 19.1669 5.78441 18.9826 5.44988 18.6481L1.35355 14.5518C0.659375 13.8576 0.659375 12.7281 1.35355 12.0339L8.43246 4.95504L9.5168 6.03926C9.59816 6.12062 9.7048 6.16129 9.81141 6.16129C9.91813 6.16129 10.0247 6.12059 10.1061 6.03926C10.2688 5.87648 10.2687 5.61269 10.106 5.45L9.05684 4.40094C9.33305 4.23211 9.65215 4.14156 9.98617 4.14156C10.4634 4.14156 10.9104 4.32582 11.245 4.66035L15.3413 8.75664C15.6759 9.09121 15.8602 9.53832 15.8602 10.0156C15.8601 10.3496 15.7695 10.6686 15.6007 10.9448ZM17.1735 8.2707C17.0222 8.42195 16.8199 8.50523 16.6037 8.50523C16.3875 8.50523 16.1853 8.42199 16.0341 8.27078L11.7309 3.96766C11.5797 3.81644 11.4964 3.61414 11.4964 3.39797C11.4964 3.1818 11.5797 2.97937 11.731 2.82812C11.8822 2.67691 12.0845 2.59363 12.3008 2.59363C12.517 2.59363 12.7194 2.67691 12.8706 2.82812L12.9707 2.92816C12.9711 2.92855 12.9713 2.92891 12.9717 2.92926L17.0725 7.03008C17.0729 7.03039 17.0732 7.0307 17.0736 7.03098L17.1736 7.13105C17.3248 7.28226 17.408 7.48465 17.408 7.70086C17.408 7.91711 17.3248 8.11945 17.1735 8.2707ZM18.9614 2.03445L18.5654 2.43043C17.4641 3.53176 17.5421 4.31266 17.6046 4.94012C17.6464 5.35902 17.6787 5.68269 17.3479 6.12695L13.8752 2.65426C14.2033 2.41121 14.4548 2.37105 14.6789 2.37105C14.8009 2.37105 14.9276 2.38367 15.0616 2.39707C15.214 2.41227 15.3717 2.42797 15.5439 2.42797C16.2599 2.42797 16.8853 2.12203 17.5712 1.43613L17.9671 1.0402C18.1 0.907383 18.2764 0.834297 18.4643 0.834297C18.6521 0.834297 18.8286 0.907383 18.9614 1.04012C19.2356 1.3143 19.2356 1.76039 18.9614 2.03445Z" fill="#027D07"/>
<path d="M5.5063 15.5974C5.34353 15.4347 5.07978 15.4347 4.917 15.5974C4.75423 15.7601 4.75423 16.0239 4.917 16.1867L4.924 16.1937C5.00536 16.2751 5.11201 16.3157 5.21869 16.3157C5.32533 16.3157 5.43189 16.2751 5.5133 16.1937C5.67607 16.031 5.67607 15.7671 5.5133 15.6044L5.5063 15.5974Z" fill="#027D07"/>
<path d="M10.9495 6.29374C10.7856 6.13222 10.5217 6.13409 10.3602 6.29804C10.1986 6.46194 10.2006 6.72577 10.3645 6.8873L10.3715 6.89425C10.4527 6.97425 10.5583 7.01413 10.664 7.01413C10.7716 7.01413 10.8793 6.97269 10.9608 6.88995C11.1223 6.72605 11.1204 6.46222 10.9564 6.30069L10.9495 6.29374Z" fill="#027D07"/>
</g>
</g>
<defs>
<clipPath id="clip0_602_4881">
<rect width="20" height="20" fill="white"/>
</clipPath>
</defs>
</svg>
