<svg width="20" height="20" viewBox="0 0 20 20" fill="none" xmlns="http://www.w3.org/2000/svg">
<g clip-path="url(#clip0_602_4874)">
<mask id="mask0_602_4874" style="mask-type:luminance" maskUnits="userSpaceOnUse" x="0" y="0" width="20" height="20">
<path d="M20 0H0V20H20V0Z" fill="white"/>
</mask>
<g mask="url(#mask0_602_4874)">
<path d="M12.1237 8.64795C11.3384 8.64795 10.6614 8.11345 10.5139 7.37702C10.4405 7.01035 10.4933 6.64803 10.6472 6.33768H9.96826C9.75081 6.33768 9.57447 6.16137 9.57447 5.94388C9.57447 5.72639 9.75081 5.55009 9.96826 5.55009H11.6061C11.7931 5.55009 11.9544 5.68166 11.9919 5.86493C12.0294 6.0482 11.9328 6.23253 11.7608 6.30602C11.4039 6.45853 11.2087 6.83531 11.2862 7.22237C11.3591 7.58608 11.7191 7.86036 12.1237 7.86036H14.1985C13.8407 7.53434 13.3652 7.33531 12.8442 7.33531C12.6267 7.33531 12.4504 7.15901 12.4504 6.94152C12.4504 6.72403 12.6267 6.54773 12.8442 6.54773C13.2302 6.54773 13.5442 6.23368 13.5442 5.84764C13.5442 5.09971 12.9357 4.49126 12.1878 4.49126C11.9704 4.49126 11.794 4.31495 11.794 4.09746C11.794 3.87997 11.9704 3.70367 12.1878 3.70367C13.37 3.70367 14.3318 4.66547 14.3318 5.84764C14.3318 6.20662 14.204 6.53635 13.9915 6.79365C14.9651 7.23265 15.6444 8.21249 15.6444 9.34803C15.6444 9.56553 15.4681 9.74183 15.2506 9.74183C15.0451 9.74183 14.8763 9.58431 14.8584 9.38336C14.8213 8.97098 14.4672 8.64795 14.0523 8.64795H12.1237ZM17.2706 3.13428C13.8574 -0.480273 8.3882 -0.98799 4.40135 1.71237C3.97042 2.00299 4.41077 2.6559 4.84169 2.36528C8.51465 -0.122826 13.5535 0.344805 16.6981 3.67488C20.1914 7.37414 20.0244 13.2048 16.3252 16.6981C12.6259 20.1913 6.79519 20.0243 3.30192 16.3251C0.252378 13.0957 -0.00772333 8.24206 2.43644 4.7371C2.73285 4.31047 2.08608 3.86111 1.78967 4.2877C-0.863083 8.09223 -0.580614 13.3605 2.72942 16.8657C6.52126 20.8812 12.8503 21.0624 16.8658 17.2706C20.8812 13.4787 21.0625 7.14972 17.2706 3.13428ZM3.3758 3.53123C3.58214 3.46251 3.69371 3.2395 3.62503 3.03316C3.55631 2.82681 3.33331 2.71521 3.12696 2.78392C2.92061 2.85264 2.80901 3.07565 2.87773 3.28199C2.94644 3.48834 3.16945 3.59994 3.3758 3.53123ZM15.932 15.3751L4.62491 4.06809C4.45975 3.90293 4.47464 3.63216 4.65504 3.48381C7.96535 0.762108 12.8656 0.947742 15.9589 4.04107C19.0523 7.1344 19.2379 12.0346 16.5162 15.3449C16.3679 15.5254 16.0971 15.5402 15.932 15.3751ZM5.49775 3.82689L12.2222 10.5513H15.4344C16.0858 10.5513 16.6158 11.0813 16.6158 11.7327C16.6158 12.3841 16.0858 12.9141 15.4344 12.9141H14.585L16.1732 14.5022C18.3583 11.5137 18.1012 7.297 15.4021 4.59793C12.703 1.89887 8.48626 1.64172 5.49775 3.82689ZM13.7974 12.1265H15.4344C15.6515 12.1265 15.8282 11.9498 15.8282 11.7327C15.8282 11.5156 15.6515 11.3389 15.4344 11.3389H13.0098L13.7974 12.1265ZM4.06856 4.62526L15.3756 15.9323C15.5408 16.0974 15.5259 16.3682 15.3455 16.5165C12.0352 19.2382 7.13491 19.0526 4.04158 15.9593C0.94825 12.8659 0.762617 7.96566 3.48429 4.65539C3.63263 4.47499 3.9034 4.46011 4.06856 4.62526ZM9.66815 11.3389H7.79475V12.1265H10.4558L9.66815 11.3389ZM4.59841 15.4024C7.29747 18.1015 11.5143 18.3586 14.5028 16.1735L11.2434 12.9141H4.13247C3.91502 12.9141 3.73868 12.7378 3.73868 12.5203V10.9451C3.73868 10.7276 3.91502 10.5513 4.13247 10.5513H8.88056L3.82736 5.49811C1.6422 8.48661 1.89935 12.7034 4.59841 15.4024ZM4.52627 11.3389V12.1265H7.00717V11.3389H4.52627Z" fill="#027D07"/>
</g>
</g>
<defs>
<clipPath id="clip0_602_4874">
<rect width="20" height="20" fill="white"/>
</clipPath>
</defs>
</svg>
