<svg width="20" height="20" viewBox="0 0 20 20" fill="none" xmlns="http://www.w3.org/2000/svg">
<g clip-path="url(#clip0_602_4839)">
<mask id="mask0_602_4839" style="mask-type:luminance" maskUnits="userSpaceOnUse" x="0" y="0" width="20" height="20">
<path d="M20 0H0V20H20V0Z" fill="white"/>
</mask>
<g mask="url(#mask0_602_4839)">
<path d="M2.38897 17.9667V18.6667C2.38897 19.403 2.98593 20 3.72231 20H6.99997C7.73635 20 8.33331 19.403 8.33331 18.6667V18H11.6666V18.6667C11.6666 19.403 12.2636 20 13 20H16.2776C17.014 20 17.611 19.403 17.611 18.6667V17.972C18.4112 17.8368 18.9977 17.1449 19 16.3333V1.66667C18.9989 0.746649 18.2533 0.00110204 17.3333 0H2.72331C1.80329 0.00110204 1.05774 0.746649 1.05664 1.66667V3C1.05664 3.18409 1.20588 3.33333 1.38997 3.33333C1.57407 3.33333 1.72331 3.18409 1.72331 3V1.66667C1.72331 1.11438 2.17102 0.666667 2.72331 0.666667H17.3333C17.8856 0.666667 18.3333 1.11438 18.3333 1.66667V16.3333C18.3333 16.8856 17.8856 17.3333 17.3333 17.3333H2.72331C2.17102 17.3333 1.72331 16.8856 1.72331 16.3333V4.66667C1.72331 4.48257 1.57407 4.33333 1.38997 4.33333C1.20588 4.33333 1.05664 4.48257 1.05664 4.66667V16.3333C1.05754 17.1247 1.6139 17.8068 2.38897 17.9667ZM16.9443 18V18.6667C16.9443 19.0349 16.6458 19.3333 16.2776 19.3333H13C12.6318 19.3333 12.3333 19.0349 12.3333 18.6667V18H16.9443ZM7.66664 18V18.6667C7.66664 19.0349 7.36816 19.3333 6.99997 19.3333H3.72231C3.35412 19.3333 3.05564 19.0349 3.05564 18.6667V18H7.66664Z" fill="#027D07"/>
<path d="M3.66732 11.3333C3.48322 11.3333 3.33398 11.4825 3.33398 11.6666V14.6666C3.33398 15.2189 3.7817 15.6666 4.33398 15.6666H15.6673C16.2196 15.6666 16.6673 15.2189 16.6673 14.6666V14.3333C17.2196 14.3333 17.6673 13.8855 17.6673 13.3333V11.3333C17.6673 10.781 17.2196 10.3333 16.6673 10.3333V7.66659C17.2196 7.66659 17.6673 7.21887 17.6673 6.66659V4.66659C17.6673 4.1143 17.2196 3.66659 16.6673 3.66659V3.33325C16.6673 2.78097 16.2196 2.33325 15.6673 2.33325H4.33398C3.7817 2.33325 3.33398 2.78097 3.33398 3.33325V9.99992C3.33398 10.184 3.48322 10.3333 3.66732 10.3333C3.85141 10.3333 4.00065 10.184 4.00065 9.99992V3.33325C4.00065 3.14916 4.14989 2.99992 4.33398 2.99992H15.6673C15.8514 2.99992 16.0006 3.14916 16.0006 3.33325V3.66659C15.4483 3.66659 15.0006 4.1143 15.0006 4.66659V6.66659C15.0006 7.21887 15.4483 7.66659 16.0006 7.66659V10.3333C15.4483 10.3333 15.0006 10.781 15.0006 11.3333V13.3333C15.0006 13.8855 15.4483 14.3333 16.0006 14.3333V14.6666C16.0006 14.8507 15.8514 14.9999 15.6673 14.9999H4.33398C4.14989 14.9999 4.00065 14.8507 4.00065 14.6666V11.6666C4.00065 11.4825 3.85141 11.3333 3.66732 11.3333ZM15.6673 6.66659V4.66659C15.6673 4.48249 15.8165 4.33325 16.0006 4.33325H16.6673C16.8514 4.33325 17.0006 4.48249 17.0006 4.66659V6.66659C17.0006 6.85068 16.8514 6.99992 16.6673 6.99992H16.0006C15.8165 6.99992 15.6673 6.85068 15.6673 6.66659ZM15.6673 13.3333V11.3333C15.6673 11.1492 15.8165 10.9999 16.0006 10.9999H16.6673C16.8514 10.9999 17.0006 11.1492 17.0006 11.3333V13.3333C17.0006 13.5173 16.8514 13.6666 16.6673 13.6666H16.0006C15.8165 13.6666 15.6673 13.5173 15.6673 13.3333Z" fill="#027D07"/>
<path d="M6.30493 10.5306C7.03518 12.2936 8.90916 13.2953 10.7808 12.9231C12.6524 12.5508 14.0004 10.9082 14.0004 8.99991C14.0004 7.0916 12.6524 5.44904 10.7808 5.07676C8.90916 4.70448 7.03518 5.70618 6.30493 7.46924C5.89575 8.44867 5.89575 9.55115 6.30493 10.5306ZM8.42293 6.06391L8.54427 6.35657C8.58814 6.46912 8.68946 6.54912 8.80911 6.56569C8.92876 6.58225 9.04801 6.5328 9.12082 6.43641C9.19362 6.34003 9.20859 6.2118 9.15993 6.10124L9.03893 5.80857C9.66564 5.61792 10.3349 5.61792 10.9616 5.80857L10.8406 6.10124C10.7919 6.2118 10.8069 6.34003 10.8797 6.43641C10.9525 6.5328 11.0717 6.58225 11.1914 6.56569C11.311 6.54912 11.4124 6.46912 11.4562 6.35657L11.5776 6.06357C12.1554 6.37204 12.6286 6.8453 12.9369 7.42324L12.6442 7.54457C12.5317 7.58845 12.4517 7.68977 12.4351 7.80942C12.4185 7.92907 12.468 8.04832 12.5644 8.12112C12.6608 8.19393 12.789 8.20889 12.8996 8.16024L13.1922 8.03924C13.3829 8.66595 13.3829 9.3352 13.1922 9.96191L12.8996 9.84091C12.789 9.79226 12.6608 9.80722 12.5644 9.88003C12.468 9.95283 12.4185 10.0721 12.4351 10.1917C12.4517 10.3114 12.5317 10.4127 12.6442 10.4566L12.9372 10.5779C12.6288 11.1558 12.1555 11.6289 11.5776 11.9372L11.4562 11.6446C11.4124 11.532 11.311 11.452 11.1914 11.4355C11.0717 11.4189 10.9525 11.4684 10.8797 11.5647C10.8069 11.6611 10.7919 11.7894 10.8406 11.8999L10.9616 12.1926C10.3349 12.3832 9.66564 12.3832 9.03893 12.1926L9.15993 11.8999C9.20859 11.7894 9.19362 11.6611 9.12082 11.5647C9.04801 11.4684 8.92876 11.4189 8.80911 11.4355C8.68946 11.452 8.58814 11.532 8.54427 11.6446L8.42293 11.9376C7.84507 11.6291 7.37193 11.1558 7.0636 10.5779L7.35627 10.4566C7.46881 10.4127 7.54881 10.3114 7.56538 10.1917C7.58195 10.0721 7.53249 9.95283 7.43611 9.88003C7.33972 9.80722 7.21149 9.79226 7.10093 9.84091L6.80827 9.96191C6.61761 9.3352 6.61761 8.66595 6.80827 8.03924L7.10093 8.16024C7.21149 8.20889 7.33972 8.19393 7.43611 8.12112C7.53249 8.04832 7.58195 7.92907 7.56538 7.80942C7.54881 7.68977 7.46881 7.58845 7.35627 7.54457L7.06327 7.42324C7.37163 6.84513 7.8449 6.37242 8.42293 6.06391Z" fill="#027D07"/>
<path d="M10.0032 11C10.884 10.9986 11.6602 10.4212 11.9147 9.57801C12.1693 8.7348 11.8422 7.82433 11.1093 7.33581C10.3764 6.8473 9.41025 6.89576 8.72991 7.45515C8.04956 8.01454 7.81526 8.95316 8.15289 9.76667C8.46387 10.5138 9.19392 11.0005 10.0032 11ZM9.49022 7.76667C10.1706 7.48598 10.9497 7.80969 11.2309 8.48988C11.512 9.17007 11.1889 9.94943 10.5089 10.2311C9.82894 10.5127 9.04935 10.1901 8.76722 9.51034C8.63055 9.18336 8.63003 8.81537 8.76577 8.48801C8.90151 8.16065 9.16228 7.901 9.49022 7.76667Z" fill="#027D07"/>
<path d="M6.66602 3.66675H4.99935C4.81526 3.66675 4.66602 3.81599 4.66602 4.00008V5.66675C4.66602 5.85084 4.81526 6.00008 4.99935 6.00008C5.18345 6.00008 5.33268 5.85084 5.33268 5.66675V4.33341H6.66602C6.85011 4.33341 6.99935 4.18418 6.99935 4.00008C6.99935 3.81599 6.85011 3.66675 6.66602 3.66675Z" fill="#027D07"/>
</g>
</g>
<defs>
<clipPath id="clip0_602_4839">
<rect width="20" height="20" fill="white"/>
</clipPath>
</defs>
</svg>
