<svg width="20" height="20" viewBox="0 0 20 20" fill="none" xmlns="http://www.w3.org/2000/svg">
<path d="M1.2832 6.95016C3.61551 4.61771 6.7114 3.33325 10.0006 3.33325C13.2898 3.33325 16.3857 4.61776 18.718 6.95011" stroke="#027D07" stroke-linecap="round"/>
<path d="M4.17969 9.84672C5.73704 8.28938 7.80422 7.43164 10.0005 7.43164C12.1969 7.43164 14.264 8.28938 15.8212 9.84672" stroke="#027D07" stroke-linecap="round"/>
<path d="M7.07617 12.7434C7.85861 11.9609 8.89708 11.53 10.0004 11.53C11.1037 11.53 12.1422 11.961 12.9247 12.7434" stroke="#027D07" stroke-linecap="round"/>
<path d="M10.0007 16.2501C10.2308 16.2501 10.4173 16.0635 10.4173 15.8334C10.4173 15.6033 10.2308 15.4167 10.0007 15.4167C9.77052 15.4167 9.58398 15.6033 9.58398 15.8334C9.58398 16.0635 9.77052 16.2501 10.0007 16.2501Z" stroke="#027D07"/>
</svg>
